{
    "asset" : {
        "generator" : "Khronos glTF Blender I/O v3.2.40",
        "version" : "2.0"
    },
    "scene" : 0,
    "scenes" : [
        {
            "name" : "Scene",
            "nodes" : [
                6
            ]
        }
    ],
    "nodes" : [
        {
            "mesh" : 0,
            "name" : "Robot-Arms",
            "translation" : [
                -0.0018568933010101318,
                -0.28754091262817383,
                0.015560746192932129
            ]
        },
        {
            "mesh" : 1,
            "name" : "Robot-Eye",
            "translation" : [
                0.025728842243552208,
                0.02504858374595642,
                0.24705515801906586
            ]
        },
        {
            "mesh" : 2,
            "name" : "Robot-Eye2",
            "translation" : [
                0.010618405416607857,
                0.09600125998258591,
                0.21195088326931
            ]
        },
        {
            "children" : [
                1,
                2
            ],
            "mesh" : 3,
            "name" : "Robot-Head",
            "rotation" : [
                -0.07347407191991806,
                -0.007420822512358427,
                -0.01647954061627388,
                0.9971333742141724
            ],
            "translation" : [
                0.0026206672191619873,
                0.1327371597290039,
                0.0027747154235839844
            ]
        },
        {
            "mesh" : 4,
            "name" : "Robot-SphereWheel"
        },
        {
            "children" : [
                4
            ],
            "mesh" : 5,
            "name" : "Robot-Sphere",
            "rotation" : [
                0.14122238755226135,
                0.22385276854038239,
                -0.00299217295832932,
                0.9643325209617615
            ],
            "translation" : [
                0.0023194849491119385,
                -0.9023845195770264,
                -0.01847398281097412
            ]
        },
        {
            "children" : [
                0,
                3,
                5
            ],
            "mesh" : 6,
            "name" : "Robot-Body",
            "translation" : [
                0.01681014895439148,
                1.0251357555389404,
                -0.028430700302124023
            ]
        }
    ],
    "materials" : [
        {
            "doubleSided" : true,
            "name" : "Material.001",
            "normalTexture" : {
                "index" : 0
            },
            "pbrMetallicRoughness" : {
                "baseColorTexture" : {
                    "index" : 1
                },
                "metallicFactor" : 0.5,
                "roughnessFactor" : 0.5
            }
        }
    ],
    "meshes" : [
        {
            "name" : "Cylinder.005",
            "primitives" : [
                {
                    "attributes" : {
                        "POSITION" : 0,
                        "NORMAL" : 1,
                        "TEXCOORD_0" : 2
                    },
                    "indices" : 3,
                    "material" : 0
                }
            ]
        },
        {
            "name" : "Cylinder.007",
            "primitives" : [
                {
                    "attributes" : {
                        "POSITION" : 4,
                        "NORMAL" : 5,
                        "TEXCOORD_0" : 6
                    },
                    "indices" : 7,
                    "material" : 0
                }
            ]
        },
        {
            "name" : "Cylinder.004",
            "primitives" : [
                {
                    "attributes" : {
                        "POSITION" : 8,
                        "NORMAL" : 9,
                        "TEXCOORD_0" : 10
                    },
                    "indices" : 7,
                    "material" : 0
                }
            ]
        },
        {
            "name" : "Sphere.007",
            "primitives" : [
                {
                    "attributes" : {
                        "POSITION" : 11,
                        "NORMAL" : 12,
                        "TEXCOORD_0" : 13
                    },
                    "indices" : 14,
                    "material" : 0
                }
            ]
        },
        {
            "name" : "Sphere.009",
            "primitives" : [
                {
                    "attributes" : {
                        "POSITION" : 15,
                        "NORMAL" : 16,
                        "TEXCOORD_0" : 17
                    },
                    "indices" : 18,
                    "material" : 0
                }
            ]
        },
        {
            "name" : "Sphere.008",
            "primitives" : [
                {
                    "attributes" : {
                        "POSITION" : 19,
                        "NORMAL" : 20,
                        "TEXCOORD_0" : 21
                    },
                    "indices" : 22,
                    "material" : 0
                }
            ]
        },
        {
            "name" : "Circle.002",
            "primitives" : [
                {
                    "attributes" : {
                        "POSITION" : 23,
                        "NORMAL" : 24,
                        "TEXCOORD_0" : 25
                    },
                    "indices" : 26,
                    "material" : 0
                }
            ]
        }
    ],
    "textures" : [
        {
            "sampler" : 0,
            "source" : 0
        },
        {
            "sampler" : 0,
            "source" : 1
        }
    ],
    "images" : [
        {
            "mimeType" : "image/png",
            "name" : "body_normal",
            "uri" : "body_normal.png"
        },
        {
            "mimeType" : "image/png",
            "name" : "body_uv",
            "uri" : "body_uv.png"
        }
    ],
    "accessors" : [
        {
            "bufferView" : 0,
            "componentType" : 5126,
            "count" : 806,
            "max" : [
                3.4879307746887207,
                3.463336706161499,
                0.7503981590270996
            ],
            "min" : [
                -3.5528194904327393,
                0.509418249130249,
                -0.786842405796051
            ],
            "type" : "VEC3"
        },
        {
            "bufferView" : 1,
            "componentType" : 5126,
            "count" : 806,
            "type" : "VEC3"
        },
        {
            "bufferView" : 2,
            "componentType" : 5126,
            "count" : 806,
            "type" : "VEC2"
        },
        {
            "bufferView" : 3,
            "componentType" : 5123,
            "count" : 2424,
            "type" : "SCALAR"
        },
        {
            "bufferView" : 4,
            "componentType" : 5126,
            "count" : 104,
            "max" : [
                0.061765000224113464,
                5.333894729614258,
                1.9360673427581787
            ],
            "min" : [
                -0.5043462514877319,
                4.749452590942383,
                1.0266871452331543
            ],
            "type" : "VEC3"
        },
        {
            "bufferView" : 5,
            "componentType" : 5126,
            "count" : 104,
            "type" : "VEC3"
        },
        {
            "bufferView" : 6,
            "componentType" : 5126,
            "count" : 104,
            "type" : "VEC2"
        },
        {
            "bufferView" : 7,
            "componentType" : 5123,
            "count" : 246,
            "type" : "SCALAR"
        },
        {
            "bufferView" : 8,
            "componentType" : 5126,
            "count" : 104,
            "max" : [
                -0.07047583162784576,
                5.4651994705200195,
                1.779642105102539
            ],
            "min" : [
                -0.34105443954467773,
                5.212151527404785,
                0.8833473324775696
            ],
            "type" : "VEC3"
        },
        {
            "bufferView" : 9,
            "componentType" : 5126,
            "count" : 104,
            "type" : "VEC3"
        },
        {
            "bufferView" : 10,
            "componentType" : 5126,
            "count" : 104,
            "type" : "VEC2"
        },
        {
            "bufferView" : 11,
            "componentType" : 5126,
            "count" : 520,
            "max" : [
                0.9395081996917725,
                6.053903579711914,
                1.772695541381836
            ],
            "min" : [
                -1.3808705806732178,
                3.860841751098633,
                -0.4170612692832947
            ],
            "type" : "VEC3"
        },
        {
            "bufferView" : 12,
            "componentType" : 5126,
            "count" : 520,
            "type" : "VEC3"
        },
        {
            "bufferView" : 13,
            "componentType" : 5126,
            "count" : 520,
            "type" : "VEC2"
        },
        {
            "bufferView" : 14,
            "componentType" : 5123,
            "count" : 1704,
            "type" : "SCALAR"
        },
        {
            "bufferView" : 15,
            "componentType" : 5126,
            "count" : 106,
            "max" : [
                1.2142224311828613,
                1.0869300365447998,
                0.7407928705215454
            ],
            "min" : [
                -1.01680588722229,
                0.4945080280303955,
                -1.4793099164962769
            ],
            "type" : "VEC3"
        },
        {
            "bufferView" : 16,
            "componentType" : 5126,
            "count" : 106,
            "type" : "VEC3"
        },
        {
            "bufferView" : 17,
            "componentType" : 5126,
            "count" : 106,
            "type" : "VEC2"
        },
        {
            "bufferView" : 18,
            "componentType" : 5123,
            "count" : 288,
            "type" : "SCALAR"
        },
        {
            "bufferView" : 19,
            "componentType" : 5126,
            "count" : 468,
            "max" : [
                1.1086573600769043,
                1.774468183517456,
                0.641775369644165
            ],
            "min" : [
                -0.9112405180931091,
                -0.19303035736083984,
                -1.3802918195724487
            ],
            "type" : "VEC3"
        },
        {
            "bufferView" : 20,
            "componentType" : 5126,
            "count" : 468,
            "type" : "VEC3"
        },
        {
            "bufferView" : 21,
            "componentType" : 5126,
            "count" : 468,
            "type" : "VEC2"
        },
        {
            "bufferView" : 22,
            "componentType" : 5123,
            "count" : 1632,
            "type" : "SCALAR"
        },
        {
            "bufferView" : 23,
            "componentType" : 5126,
            "count" : 612,
            "max" : [
                2.5396358966827393,
                4.65916633605957,
                1.918784499168396
            ],
            "min" : [
                -2.589669704437256,
                0.8840906620025635,
                -1.7044017314910889
            ],
            "type" : "VEC3"
        },
        {
            "bufferView" : 24,
            "componentType" : 5126,
            "count" : 612,
            "type" : "VEC3"
        },
        {
            "bufferView" : 25,
            "componentType" : 5126,
            "count" : 612,
            "type" : "VEC2"
        },
        {
            "bufferView" : 26,
            "componentType" : 5123,
            "count" : 1872,
            "type" : "SCALAR"
        }
    ],
    "bufferViews" : [
        {
            "buffer" : 0,
            "byteLength" : 9672,
            "byteOffset" : 0
        },
        {
            "buffer" : 0,
            "byteLength" : 9672,
            "byteOffset" : 9672
        },
        {
            "buffer" : 0,
            "byteLength" : 6448,
            "byteOffset" : 19344
        },
        {
            "buffer" : 0,
            "byteLength" : 4848,
            "byteOffset" : 25792
        },
        {
            "buffer" : 0,
            "byteLength" : 1248,
            "byteOffset" : 30640
        },
        {
            "buffer" : 0,
            "byteLength" : 1248,
            "byteOffset" : 31888
        },
        {
            "buffer" : 0,
            "byteLength" : 832,
            "byteOffset" : 33136
        },
        {
            "buffer" : 0,
            "byteLength" : 492,
            "byteOffset" : 33968
        },
        {
            "buffer" : 0,
            "byteLength" : 1248,
            "byteOffset" : 34460
        },
        {
            "buffer" : 0,
            "byteLength" : 1248,
            "byteOffset" : 35708
        },
        {
            "buffer" : 0,
            "byteLength" : 832,
            "byteOffset" : 36956
        },
        {
            "buffer" : 0,
            "byteLength" : 6240,
            "byteOffset" : 37788
        },
        {
            "buffer" : 0,
            "byteLength" : 6240,
            "byteOffset" : 44028
        },
        {
            "buffer" : 0,
            "byteLength" : 4160,
            "byteOffset" : 50268
        },
        {
            "buffer" : 0,
            "byteLength" : 3408,
            "byteOffset" : 54428
        },
        {
            "buffer" : 0,
            "byteLength" : 1272,
            "byteOffset" : 57836
        },
        {
            "buffer" : 0,
            "byteLength" : 1272,
            "byteOffset" : 59108
        },
        {
            "buffer" : 0,
            "byteLength" : 848,
            "byteOffset" : 60380
        },
        {
            "buffer" : 0,
            "byteLength" : 576,
            "byteOffset" : 61228
        },
        {
            "buffer" : 0,
            "byteLength" : 5616,
            "byteOffset" : 61804
        },
        {
            "buffer" : 0,
            "byteLength" : 5616,
            "byteOffset" : 67420
        },
        {
            "buffer" : 0,
            "byteLength" : 3744,
            "byteOffset" : 73036
        },
        {
            "buffer" : 0,
            "byteLength" : 3264,
            "byteOffset" : 76780
        },
        {
            "buffer" : 0,
            "byteLength" : 7344,
            "byteOffset" : 80044
        },
        {
            "buffer" : 0,
            "byteLength" : 7344,
            "byteOffset" : 87388
        },
        {
            "buffer" : 0,
            "byteLength" : 4896,
            "byteOffset" : 94732
        },
        {
            "buffer" : 0,
            "byteLength" : 3744,
            "byteOffset" : 99628
        }
    ],
    "samplers" : [
        {
            "magFilter" : 9729,
            "minFilter" : 9987
        }
    ],
    "buffers" : [
        {
            "byteLength" : 103372,
            "uri" : "Robot.bin"
        }
    ]
}
