{
    "asset" : {
        "generator" : "Khronos glTF Blender I/O v3.2.40",
        "version" : "2.0"
    },
    "scene" : 0,
    "scenes" : [
        {
            "name" : "Scene",
            "nodes" : [
                0,
                1
            ]
        }
    ],
    "nodes" : [
        {
            "mesh" : 0,
            "name" : "Neon_Building02",
            "scale" : [
                0.009999999776482582,
                0.009999999776482582,
                0.009999999776482582
            ],
            "translation" : [
                4.263017654418945,
                0,
                -0.5539422631263733
            ]
        },
        {
            "mesh" : 1,
            "name" : "COL"
        }
    ],
    "materials" : [
        {
            "doubleSided" : true,
            "name" : "Wall1",
            "pbrMetallicRoughness" : {
                "baseColorTexture" : {
                    "index" : 0
                },
                "roughnessFactor" : 0.858578622341156
            }
        }
    ],
    "meshes" : [
        {
            "name" : "Mesh.002",
            "primitives" : [
                {
                    "attributes" : {
                        "POSITION" : 0,
                        "NORMAL" : 1,
                        "TEXCOORD_0" : 2
                    },
                    "indices" : 3,
                    "material" : 0
                }
            ]
        },
        {
            "name" : "\u7acb\u65b9\u4f53",
            "primitives" : [
                {
                    "attributes" : {
                        "POSITION" : 4,
                        "NORMAL" : 5,
                        "TEXCOORD_0" : 6
                    },
                    "indices" : 7
                }
            ]
        }
    ],
    "textures" : [
        {
            "sampler" : 0,
            "source" : 0
        }
    ],
    "images" : [
        {
            "mimeType" : "image/png",
            "name" : "Neon_Buiding_UV",
            "uri" : "Neon_Buiding_UV.png"
        }
    ],
    "accessors" : [
        {
            "bufferView" : 0,
            "componentType" : 5126,
            "count" : 7255,
            "max" : [
                640.430419921875,
                9571.8466796875,
                949.9823608398438
            ],
            "min" : [
                -1493.0343017578125,
                0,
                -839.1939086914062
            ],
            "type" : "VEC3"
        },
        {
            "bufferView" : 1,
            "componentType" : 5126,
            "count" : 7255,
            "type" : "VEC3"
        },
        {
            "bufferView" : 2,
            "componentType" : 5126,
            "count" : 7255,
            "type" : "VEC2"
        },
        {
            "bufferView" : 3,
            "componentType" : 5123,
            "count" : 11667,
            "type" : "SCALAR"
        },
        {
            "bufferView" : 4,
            "componentType" : 5126,
            "count" : 24,
            "max" : [
                12.5,
                25,
                12.5
            ],
            "min" : [
                -12.5,
                0,
                -12.5
            ],
            "type" : "VEC3"
        },
        {
            "bufferView" : 5,
            "componentType" : 5126,
            "count" : 24,
            "type" : "VEC3"
        },
        {
            "bufferView" : 6,
            "componentType" : 5126,
            "count" : 24,
            "type" : "VEC2"
        },
        {
            "bufferView" : 7,
            "componentType" : 5123,
            "count" : 36,
            "type" : "SCALAR"
        }
    ],
    "bufferViews" : [
        {
            "buffer" : 0,
            "byteLength" : 87060,
            "byteOffset" : 0
        },
        {
            "buffer" : 0,
            "byteLength" : 87060,
            "byteOffset" : 87060
        },
        {
            "buffer" : 0,
            "byteLength" : 58040,
            "byteOffset" : 174120
        },
        {
            "buffer" : 0,
            "byteLength" : 23334,
            "byteOffset" : 232160
        },
        {
            "buffer" : 0,
            "byteLength" : 288,
            "byteOffset" : 255496
        },
        {
            "buffer" : 0,
            "byteLength" : 288,
            "byteOffset" : 255784
        },
        {
            "buffer" : 0,
            "byteLength" : 192,
            "byteOffset" : 256072
        },
        {
            "buffer" : 0,
            "byteLength" : 72,
            "byteOffset" : 256264
        }
    ],
    "samplers" : [
        {
            "magFilter" : 9729,
            "minFilter" : 9987
        }
    ],
    "buffers" : [
        {
            "byteLength" : 256336,
            "uri" : "NeonBuilding.bin"
        }
    ]
}
